HIERARCHY
ROOT hip
{
  OFFSET 0 90.174 2.4664
  CHANNELS 6 Xposition Yposition Zposition Zrotation Xrotation Yrotation
  JOINT abdomen
  {
    OFFSET 0 -1.186 -1.5018
    CHANNELS 6 Xposition Yposition Zposition Zrotation Xrotation Yrotation
    JOINT abdomen2
    {
      OFFSET 0 9.964 0.2134
      CHANNELS 6 Xposition Yposition Zposition Zrotation Xrotation Yrotation
      JOINT chest
      {
        OFFSET 0 13.134 -3.2573
        CHANNELS 6 Xposition Yposition Zposition Zrotation Xrotation Yrotation
        JOINT neck
        {
          OFFSET 0 20.686 -1.6905
          CHANNELS 6 Xposition Yposition Zposition Zrotation Xrotation Yrotation
          JOINT head
          {
            OFFSET 0 7.238 -0.1237
            CHANNELS 6 Xposition Yposition Zposition Zrotation Xrotation Yrotation
            End Site
            {
              OFFSET 0 0 0
            }
          }
        }
        JOINT lCollar
        {
          OFFSET 1.7069 20.075 5.0056
          CHANNELS 6 Xposition Yposition Zposition Zrotation Xrotation Yrotation
          JOINT lShldr
          {
            OFFSET 13.6458 -0.047 -4.849
            CHANNELS 6 Xposition Yposition Zposition Zrotation Xrotation Yrotation
            JOINT lForeArm
            {
              OFFSET 28.3255 -0.9759 2.2888
              CHANNELS 6 Xposition Yposition Zposition Zrotation Xrotation Yrotation
              JOINT lHand
              {
                OFFSET 22.1583 -0.53 10.8316
                CHANNELS 6 Xposition Yposition Zposition Zrotation Xrotation Yrotation
                JOINT lThumb1
                {
                  OFFSET 0.786 0.112 2.5817
                  CHANNELS 6 Xposition Yposition Zposition Zrotation Xrotation Yrotation
                  JOINT lThumb2
                  {
                    OFFSET 0.3601 -0.878 4.2331
                    CHANNELS 6 Xposition Yposition Zposition Zrotation Xrotation Yrotation
                    JOINT lThumb2_End
                    {
                      OFFSET 1.8127 -1.216 2.2227
                      CHANNELS 6 Xposition Yposition Zposition Zrotation Xrotation Yrotation
                      End Site
                      {
                        OFFSET 0.0181 -0.0122 0.0222
                      }
                    }
                  }
                }
                JOINT lCarpal1
                {
                  OFFSET 0.9571 1.114 1.7695
                  CHANNELS 6 Xposition Yposition Zposition Zrotation Xrotation Yrotation
                  JOINT lIndex1
                  {
                    OFFSET 4.1246 0.487 4.1451
                    CHANNELS 6 Xposition Yposition Zposition Zrotation Xrotation Yrotation
                    JOINT lIndex2
                    {
                      OFFSET 3.4052 -1.454 2.7682
                      CHANNELS 6 Xposition Yposition Zposition Zrotation Xrotation Yrotation
                      JOINT lIndex2_End
                      {
                        OFFSET 1.4531 -1.795 1.2713
                        CHANNELS 6 Xposition Yposition Zposition Zrotation Xrotation Yrotation
                        End Site
                        {
                          OFFSET 0.0145 -0.0179 0.0127
                        }
                      }
                    }
                  }
                  JOINT lMid1
                  {
                    OFFSET 5.6954 0.21 2.1184
                    CHANNELS 6 Xposition Yposition Zposition Zrotation Xrotation Yrotation
                    JOINT lMid2
                    {
                      OFFSET 3.9766 -1.54 2.3863
                      CHANNELS 6 Xposition Yposition Zposition Zrotation Xrotation Yrotation
                      JOINT lMid2_End
                      {
                        OFFSET 1.4042 -1.926 1.125
                        CHANNELS 6 Xposition Yposition Zposition Zrotation Xrotation Yrotation
                        End Site
                        {
                          OFFSET 0.014 -0.0193 0.0113
                        }
                      }
                    }
                  }
                }
                JOINT lCarpal2
                {
                  OFFSET 2.0956 0.66 -0.3894
                  CHANNELS 6 Xposition Yposition Zposition Zrotation Xrotation Yrotation
                  JOINT lRing1
                  {
                    OFFSET 5.0395 -0.09 2.4971
                    CHANNELS 6 Xposition Yposition Zposition Zrotation Xrotation Yrotation
                    JOINT lRing2
                    {
                      OFFSET 3.7921 -1.552 1.4806
                      CHANNELS 6 Xposition Yposition Zposition Zrotation Xrotation Yrotation
                      JOINT lRing2_End
                      {
                        OFFSET 1.4655 -1.808 0.9609
                        CHANNELS 6 Xposition Yposition Zposition Zrotation Xrotation Yrotation
                        End Site
                        {
                          OFFSET 0.0147 -0.0181 0.0096
                        }
                      }
                    }
                  }
                  JOINT lPinky1
                  {
                    OFFSET 4.9141 -1.269 0.3591
                    CHANNELS 6 Xposition Yposition Zposition Zrotation Xrotation Yrotation
                    JOINT lPinky2
                    {
                      OFFSET 3.1477 -1.685 0.8462
                      CHANNELS 6 Xposition Yposition Zposition Zrotation Xrotation Yrotation
                      JOINT lPinky2_End
                      {
                        OFFSET 0.8055 -1.585 0.7955
                        CHANNELS 6 Xposition Yposition Zposition Zrotation Xrotation Yrotation
                        End Site
                        {
                          OFFSET 0.0081 -0.0158 0.008
                        }
                      }
                    }
                  }
                }
              }
            }
          }
        }
        JOINT rCollar
        {
          OFFSET -1.7069 20.075 5.0056
          CHANNELS 6 Xposition Yposition Zposition Zrotation Xrotation Yrotation
          JOINT rShldr
          {
            OFFSET -13.6458 -0.047 -4.849
            CHANNELS 6 Xposition Yposition Zposition Zrotation Xrotation Yrotation
            JOINT rForeArm
            {
              OFFSET -28.3255 -0.9759 2.2888
              CHANNELS 6 Xposition Yposition Zposition Zrotation Xrotation Yrotation
              JOINT rHand
              {
                OFFSET -22.1583 -0.53 10.8316
                CHANNELS 6 Xposition Yposition Zposition Zrotation Xrotation Yrotation
                JOINT rThumb1
                {
                  OFFSET -0.786 0.112 2.5817
                  CHANNELS 6 Xposition Yposition Zposition Zrotation Xrotation Yrotation
                  JOINT rThumb2
                  {
                    OFFSET -0.3601 -0.878 4.2331
                    CHANNELS 6 Xposition Yposition Zposition Zrotation Xrotation Yrotation
                    JOINT rThumb2_End
                    {
                      OFFSET -1.8127 -1.216 2.2227
                      CHANNELS 6 Xposition Yposition Zposition Zrotation Xrotation Yrotation
                      End Site
                      {
                        OFFSET -0.0181 -0.0122 0.0222
                      }
                    }
                  }
                }
                JOINT rCarpal1
                {
                  OFFSET -0.9571 1.114 1.7695
                  CHANNELS 6 Xposition Yposition Zposition Zrotation Xrotation Yrotation
                  JOINT rIndex1
                  {
                    OFFSET -4.1246 0.487 4.1451
                    CHANNELS 6 Xposition Yposition Zposition Zrotation Xrotation Yrotation
                    JOINT rIndex2
                    {
                      OFFSET -3.4052 -1.454 2.7682
                      CHANNELS 6 Xposition Yposition Zposition Zrotation Xrotation Yrotation
                      JOINT rIndex2_End
                      {
                        OFFSET -1.4531 -1.795 1.2713
                        CHANNELS 6 Xposition Yposition Zposition Zrotation Xrotation Yrotation
                        End Site
                        {
                          OFFSET -0.0145 -0.018 0.0127
                        }
                      }
                    }
                  }
                  JOINT rMid1
                  {
                    OFFSET -5.6954 0.21 2.1184
                    CHANNELS 6 Xposition Yposition Zposition Zrotation Xrotation Yrotation
                    JOINT rMid2
                    {
                      OFFSET -3.9766 -1.54 2.3863
                      CHANNELS 6 Xposition Yposition Zposition Zrotation Xrotation Yrotation
                      JOINT rMid2_End
                      {
                        OFFSET -1.4042 -1.926 1.125
                        CHANNELS 6 Xposition Yposition Zposition Zrotation Xrotation Yrotation
                        End Site
                        {
                          OFFSET -0.014 -0.0193 0.0113
                        }
                      }
                    }
                  }
                }
                JOINT rCarpal2
                {
                  OFFSET -2.0956 0.66 -0.3894
                  CHANNELS 6 Xposition Yposition Zposition Zrotation Xrotation Yrotation
                  JOINT rRing1
                  {
                    OFFSET -5.0395 -0.09 2.4971
                    CHANNELS 6 Xposition Yposition Zposition Zrotation Xrotation Yrotation
                    JOINT rRing2
                    {
                      OFFSET -3.7921 -1.552 1.4806
                      CHANNELS 6 Xposition Yposition Zposition Zrotation Xrotation Yrotation
                      JOINT rRing2_End
                      {
                        OFFSET -1.4655 -1.808 0.9609
                        CHANNELS 6 Xposition Yposition Zposition Zrotation Xrotation Yrotation
                        End Site
                        {
                          OFFSET -0.0147 -0.0181 0.0096
                        }
                      }
                    }
                  }
                  JOINT rPinky1
                  {
                    OFFSET -4.9141 -1.269 0.3592
                    CHANNELS 6 Xposition Yposition Zposition Zrotation Xrotation Yrotation
                    JOINT rPinky2
                    {
                      OFFSET -3.1477 -1.685 0.8462
                      CHANNELS 6 Xposition Yposition Zposition Zrotation Xrotation Yrotation
                      JOINT rPinky2_End
                      {
                        OFFSET -0.8055 -1.585 0.7955
                        CHANNELS 6 Xposition Yposition Zposition Zrotation Xrotation Yrotation
                        End Site
                        {
                          OFFSET -0.0081 -0.0158 0.008
                        }
                      }
                    }
                  }
                }
              }
            }
          }
        }
      }
    }
  }
  JOINT lThigh
  {
    OFFSET 8.367 -8.2066 0.5982
    CHANNELS 6 Xposition Yposition Zposition Zrotation Xrotation Yrotation
    JOINT lShin
    {
      OFFSET 2.1923 -43.463 -0.4932
      CHANNELS 6 Xposition Yposition Zposition Zrotation Xrotation Yrotation
      JOINT lFoot
      {
        OFFSET 0.7333 -45.8593 -2.6451
        CHANNELS 6 Xposition Yposition Zposition Zrotation Xrotation Yrotation
        End Site
        {
          OFFSET 2.6618 -4.2699 12.3931
        }
      }
    }
  }
  JOINT rThigh
  {
    OFFSET -8.367 -8.2066 0.5982
    CHANNELS 6 Xposition Yposition Zposition Zrotation Xrotation Yrotation
    JOINT rShin
    {
      OFFSET -2.1923 -43.463 -0.4931
      CHANNELS 6 Xposition Yposition Zposition Zrotation Xrotation Yrotation
      JOINT rFoot
      {
        OFFSET -0.7333 -45.8593 -2.6451
        CHANNELS 6 Xposition Yposition Zposition Zrotation Xrotation Yrotation
        End Site
        {
          OFFSET -2.6618 -4.2699 12.3931
        }
      }
    }
  }
}
MOTION
Frames:	4
Frame Time:	0.0333333
-0.188818 86.5871 -62.4141 0 39.9976 -0 0 -1.186 -1.5018 -0.704313 12.9663 -0.0449403 0 9.964 0.2134 -1.4563 25.9321 0.0820873 0 13.134 -3.2573 -1.4563 25.9321 0.0820869 0 20.686 -1.6905 3.29504e-008 -45.2269 -4.88215e-007 0 7.238 -0.1237 -8.73669e-007 -10.8154 -4.60906e-007 1.7069 20.075 5.0056 -45.3427 -6.48188 50.0469 13.6458 -0.047 -4.849 -44.9868 37.2757 35.9115 28.3255 -0.9759 2.2888 2.8136 -0.0480782 12.4986 22.1583 -0.53 10.8316 -5.27719 2.51435 13.1008 0.786 0.112 2.5817 1.11319e-014 3.18055e-015 -0 0.3601 -0.878 4.2331 1.43125e-014 0 3.18055e-015 1.8127 -1.216 2.2227 8.74653e-015 0 -3.18055e-015 0.9571 1.114 1.7695 0 1.59028e-015 -0 4.1246 0.487 4.1451 8.74653e-015 3.18055e-015 1.59028e-014 3.4052 -1.454 2.7682 1.19271e-014 3.18055e-015 -0 1.4531 -1.795 1.2713 1.11319e-014 3.18055e-015 -0 5.6954 0.21 2.1184 8.74653e-015 3.18055e-015 1.59028e-014 3.9766 -1.54 2.3863 1.19271e-014 3.18055e-015 -0 1.4042 -1.926 1.125 1.11319e-014 3.18055e-015 -0 2.0956 0.66 -0.3894 0 1.59028e-015 -0 5.0395 -0.09 2.4971 8.74653e-015 3.18055e-015 1.59028e-014 3.7921 -1.552 1.4806 1.19271e-014 3.18055e-015 -0 1.4655 -1.808 0.9609 1.11319e-014 3.18055e-015 -0 4.9141 -1.269 0.3591 8.74653e-015 3.18055e-015 1.59028e-014 3.1477 -1.685 0.8462 1.19271e-014 3.18055e-015 -0 0.8055 -1.585 0.7955 1.11319e-014 3.18055e-015 -0 -1.7069 20.075 5.0056 44.492 -6.35548 -48.1439 -13.6458 -0.047 -4.849 43.7565 37.3754 -34.4392 -28.3255 -0.9759 2.2888 -1.46516 0.446429 -5.2692 -22.1583 -0.53 10.8316 6.65143 2.08433 13.1376 -0.786 0.112 2.5817 2.51195e-006 -3.98679e-006 -2.10701e-006 -0.3601 -0.878 4.2331 5.66705e-007 2.06077e-006 -2.64478e-006 -1.8127 -1.216 2.2227 -3.07866e-006 1.92602e-006 4.75179e-006 -0.9571 1.114 1.7695 1.59028e-015 -1.59028e-015 -3.18055e-015 -4.1246 0.487 4.1451 2.51195e-006 -3.98679e-006 -2.10701e-006 -3.4052 -1.454 2.7682 5.66705e-007 2.06077e-006 -2.64478e-006 -1.4531 -1.795 1.2713 -3.07866e-006 1.92602e-006 4.75179e-006 -5.6954 0.21 2.1184 2.51195e-006 -3.98679e-006 -2.10701e-006 -3.9766 -1.54 2.3863 5.66705e-007 2.06077e-006 -2.64478e-006 -1.4042 -1.926 1.125 -3.07866e-006 1.92602e-006 4.75179e-006 -2.0956 0.66 -0.3894 1.59028e-015 -1.59028e-015 -3.18055e-015 -5.0395 -0.09 2.4971 2.51195e-006 -3.98679e-006 -2.10701e-006 -3.7921 -1.552 1.4806 5.66705e-007 2.06077e-006 -2.64478e-006 -1.4655 -1.808 0.9609 -3.07866e-006 1.92602e-006 4.75179e-006 -4.9141 -1.269 0.3592 2.51195e-006 -3.98679e-006 -2.10701e-006 -3.1477 -1.685 0.8462 5.66705e-007 2.06077e-006 -2.64478e-006 -0.8055 -1.585 0.7955 -3.07866e-006 1.92602e-006 4.75179e-006 8.367 -8.2066 0.5982 12.5657 -39.2153 -1.95523 2.1923 -43.463 -0.4932 -3.42461 8.43515 0.87098 0.7333 -45.8593 -2.6451 9.36585 -1.88781 8.82568 -8.367 -8.2066 0.5982 -6.87649 -43.3194 -4.29024 -2.1923 -43.463 -0.4931 -0.0745984 10.9392 -0.0431359 -0.7333 -45.8593 -2.6451 -6.62369 -5.57435 1.18046 
-0.193754 86.5868 -62.413 0 39.9976 -0 0 -1.186 -1.5018 -0.704872 12.9377 -0.0438619 0 9.964 0.2134 -1.45748 25.8749 0.0840244 0 13.134 -3.2573 -1.45748 25.8749 0.0840247 -2.22045e-016 20.686 -1.6905 2.30882e-006 -44.9516 9.08817e-007 2.22045e-016 7.238 -0.1237 -7.11291e-007 -10.3057 1.89222e-008 1.7069 20.075 5.0056 -45.3774 -6.42582 50.1874 13.6458 -0.047 -4.849 -44.9711 37.283 35.9053 28.3255 -0.9759 2.2888 2.81359 -0.0480764 12.4986 22.1583 -0.53 10.8316 -5.27717 2.51435 13.1008 0.786 0.112 2.5817 8.27784e-007 1.57686e-006 7.14124e-007 0.3601 -0.878 4.2331 7.95139e-016 0 3.18055e-015 1.8127 -1.216 2.2227 2.64834e-031 -4.77083e-015 3.18055e-015 0.9571 1.114 1.7695 1.59028e-015 -1.59028e-015 -3.18055e-015 4.1246 0.487 4.1451 8.27784e-007 1.57686e-006 7.14124e-007 3.4052 -1.454 2.7682 -1.59028e-015 0 3.18055e-015 1.4531 -1.795 1.2713 -1.59028e-015 0 3.18055e-015 5.6954 0.21 2.1184 8.27784e-007 1.57686e-006 7.14124e-007 3.9766 -1.54 2.3863 -1.59028e-015 0 3.18055e-015 1.4042 -1.926 1.125 -1.59028e-015 0 3.18055e-015 2.0956 0.66 -0.3894 1.59028e-015 -1.59028e-015 -3.18055e-015 5.0395 -0.09 2.4971 8.27784e-007 1.57686e-006 7.14124e-007 3.7921 -1.552 1.4806 -1.59028e-015 0 3.18055e-015 1.4655 -1.808 0.9609 -1.59028e-015 0 3.18055e-015 4.9141 -1.269 0.3591 8.27784e-007 1.57686e-006 7.14124e-007 3.1477 -1.685 0.8462 -1.59028e-015 0 3.18055e-015 0.8055 -1.585 0.7955 -1.59028e-015 0 3.18055e-015 -1.7069 20.075 5.0056 44.5266 -6.29554 -48.2719 -13.6458 -0.047 -4.849 43.7565 37.3755 -34.4392 -28.3255 -0.9759 2.2888 -1.46516 0.446441 -5.26919 -22.1583 -0.53 10.8316 6.65143 2.08431 13.1376 -0.786 0.112 2.5817 2.85208e-006 2.7213e-007 3.33484e-006 -0.3601 -0.878 4.2331 6.99988e-006 3.13019e-007 -3.12567e-006 -1.8127 -1.216 2.2227 2.85208e-006 2.7213e-007 3.33484e-006 -0.9571 1.114 1.7695 -1.59028e-015 1.59028e-015 3.18055e-015 -4.1246 0.487 4.1451 2.85208e-006 2.7213e-007 3.33484e-006 -3.4052 -1.454 2.7682 6.99988e-006 3.13019e-007 -3.12567e-006 -1.4531 -1.795 1.2713 2.85208e-006 2.7213e-007 3.33484e-006 -5.6954 0.21 2.1184 2.85208e-006 2.7213e-007 3.33484e-006 -3.9766 -1.54 2.3863 6.99988e-006 3.13019e-007 -3.12567e-006 -1.4042 -1.926 1.125 2.85208e-006 2.7213e-007 3.33484e-006 -2.0956 0.66 -0.3894 -1.59028e-015 1.59028e-015 3.18055e-015 -5.0395 -0.09 2.4971 2.85208e-006 2.7213e-007 3.33484e-006 -3.7921 -1.552 1.4806 6.99988e-006 3.13019e-007 -3.12567e-006 -1.4655 -1.808 0.9609 2.85208e-006 2.7213e-007 3.33484e-006 -4.9141 -1.269 0.3592 2.85208e-006 2.7213e-007 3.33484e-006 -3.1477 -1.685 0.8462 6.99988e-006 3.13019e-007 -3.12567e-006 -0.8055 -1.585 0.7955 2.85208e-006 2.7213e-007 3.33484e-006 8.367 -8.2066 0.5982 12.5608 -39.2449 -1.95528 2.1923 -43.463 -0.4932 -3.292 8.55519 0.84808 0.7333 -45.8593 -2.6451 9.36859 -1.91291 8.82733 -8.367 -8.2066 0.5982 -6.77974 -43.3161 -3.97052 -2.1923 -43.463 -0.4931 -0.0746865 10.9425 -0.0448374 -0.7333 -45.8593 -2.6451 -6.6036 -5.54904 0.915318 
-0.198689 86.5865 -62.412 0 39.9976 -0 0 -1.186 -1.5018 -0.705425 12.9091 -0.0427835 1.11022e-016 9.964 0.2134 -1.45865 25.8177 0.0859596 -2.22045e-016 13.134 -3.2573 -1.45865 25.8177 0.08596 0 20.686 -1.6905 2.45841e-005 -44.6765 1.93609e-005 -4.44089e-016 7.238 -0.1237 -6.87125e-007 -9.79604 1.96312e-007 1.7069 20.075 5.0056 -45.4122 -6.36984 50.3278 13.6458 -0.047 -4.849 -44.9553 37.2903 35.8991 28.3255 -0.9759 2.2888 2.8136 -0.0480822 12.4986 22.1583 -0.53 10.8316 -5.27719 2.51435 13.1008 0.786 0.112 2.5817 3.58071e-006 -2.60087e-006 -7.50489e-007 0.3601 -0.878 4.2331 8.21396e-007 1.53293e-006 7.50016e-007 1.8127 -1.216 2.2227 1.19271e-014 1.90833e-014 -0 0.9571 1.114 1.7695 -1.59028e-015 4.77083e-015 -3.18055e-015 4.1246 0.487 4.1451 3.58071e-006 -2.60087e-006 -7.50489e-007 3.4052 -1.454 2.7682 8.21396e-007 1.53293e-006 7.50016e-007 1.4531 -1.795 1.2713 1.11319e-014 1.59028e-014 -3.18055e-015 5.6954 0.21 2.1184 3.58071e-006 -2.60087e-006 -7.50489e-007 3.9766 -1.54 2.3863 8.21396e-007 1.53293e-006 7.50016e-007 1.4042 -1.926 1.125 1.11319e-014 1.59028e-014 -3.18055e-015 2.0956 0.66 -0.3894 -1.59028e-015 4.77083e-015 -3.18055e-015 5.0395 -0.09 2.4971 3.58071e-006 -2.60087e-006 -7.50489e-007 3.7921 -1.552 1.4806 8.21396e-007 1.53293e-006 7.50016e-007 1.4655 -1.808 0.9609 1.11319e-014 1.59028e-014 -3.18055e-015 4.9141 -1.269 0.3591 3.58071e-006 -2.60087e-006 -7.50489e-007 3.1477 -1.685 0.8462 8.21396e-007 1.53293e-006 7.50016e-007 0.8055 -1.585 0.7955 1.11319e-014 1.59028e-014 -3.18055e-015 -1.7069 20.075 5.0056 44.5613 -6.23568 -48.4 -13.6458 -0.047 -4.849 43.7565 37.3755 -34.4392 -28.3255 -0.9759 2.2888 -1.46515 0.446432 -5.2692 -22.1583 -0.53 10.8316 6.65144 2.08432 13.1376 -0.786 0.112 2.5817 4.97775e-006 -3.27899e-006 -9.21223e-007 -0.3601 -0.878 4.2331 -3.47977e-007 -4.26496e-006 -5.4388e-006 -1.8127 -1.216 2.2227 -5.68227e-007 -2.05768e-006 2.6469e-006 -0.9571 1.114 1.7695 -1.98785e-015 -1.59028e-015 -6.36111e-015 -4.1246 0.487 4.1451 4.97775e-006 -3.27899e-006 -9.21223e-007 -3.4052 -1.454 2.7682 -3.47977e-007 -4.26496e-006 -5.4388e-006 -1.4531 -1.795 1.2713 -5.68227e-007 -2.05768e-006 2.6469e-006 -5.6954 0.21 2.1184 4.97775e-006 -3.27899e-006 -9.21223e-007 -3.9766 -1.54 2.3863 -3.47977e-007 -4.26496e-006 -5.4388e-006 -1.4042 -1.926 1.125 -5.68227e-007 -2.05768e-006 2.6469e-006 -2.0956 0.66 -0.3894 -1.98785e-015 -1.59028e-015 -6.36111e-015 -5.0395 -0.09 2.4971 4.97775e-006 -3.27899e-006 -9.21223e-007 -3.7921 -1.552 1.4806 -3.47977e-007 -4.26496e-006 -5.4388e-006 -1.4655 -1.808 0.9609 -5.68227e-007 -2.05768e-006 2.6469e-006 -4.9141 -1.269 0.3592 4.97775e-006 -3.27899e-006 -9.21223e-007 -3.1477 -1.685 0.8462 -3.47977e-007 -4.26496e-006 -5.4388e-006 -0.8055 -1.585 0.7955 -5.68227e-007 -2.05768e-006 2.6469e-006 8.367 -8.2066 0.5982 12.5558 -39.2744 -1.9554 2.1923 -43.463 -0.4932 -3.15929 8.67507 0.824944 0.7333 -45.8593 -2.6451 9.37131 -1.93797 8.82898 -8.367 -8.2066 0.5982 -6.68297 -43.3118 -3.65081 -2.1923 -43.463 -0.4931 -0.074785 10.945 -0.0464814 -0.7333 -45.8593 -2.6451 -6.58339 -5.52339 0.650194 
-0.203622 86.5863 -62.411 0 39.9976 -0 0 -1.186 -1.5018 -0.70597 12.8805 -0.0417042 0 9.964 0.2134 -1.4598 25.7605 0.0878935 -6.66134e-016 13.134 -3.2573 -1.4598 25.7604 0.087892 2.22045e-016 20.686 -1.6905 1.42853e-005 -44.4012 1.13313e-005 -2.22045e-016 7.238 -0.1237 -3.46605e-007 -9.28648 8.78578e-008 1.7069 20.075 5.0056 -45.4472 -6.31393 50.4682 13.6458 -0.047 -4.849 -44.9396 37.2976 35.8929 28.3255 -0.9759 2.2888 2.81362 -0.0480816 12.4986 22.1583 -0.53 10.8316 -5.27719 2.51435 13.1008 0.786 0.112 2.5817 1.66774e-007 -4.63685e-007 -1.81761e-006 0.3601 -0.878 4.2331 1.66774e-007 -4.63685e-007 -1.81761e-006 1.8127 -1.216 2.2227 -2.38542e-015 -6.36111e-015 3.18055e-015 0.9571 1.114 1.7695 -1.76556e-031 -3.18055e-015 -3.18055e-015 4.1246 0.487 4.1451 1.66774e-007 -4.63685e-007 -1.81761e-006 3.4052 -1.454 2.7682 1.66774e-007 -4.63685e-007 -1.81761e-006 1.4531 -1.795 1.2713 -7.95139e-016 0 -0 5.6954 0.21 2.1184 1.66774e-007 -4.63685e-007 -1.81761e-006 3.9766 -1.54 2.3863 1.66774e-007 -4.63685e-007 -1.81761e-006 1.4042 -1.926 1.125 -7.95139e-016 0 -0 2.0956 0.66 -0.3894 -1.76556e-031 -3.18055e-015 -3.18055e-015 5.0395 -0.09 2.4971 1.66774e-007 -4.63685e-007 -1.81761e-006 3.7921 -1.552 1.4806 1.66774e-007 -4.63685e-007 -1.81761e-006 1.4655 -1.808 0.9609 -7.95139e-016 0 -0 4.9141 -1.269 0.3591 1.66774e-007 -4.63685e-007 -1.81761e-006 3.1477 -1.685 0.8462 1.66774e-007 -4.63685e-007 -1.81761e-006 0.8055 -1.585 0.7955 -7.95139e-016 0 -0 -1.7069 20.075 5.0056 44.5961 -6.1759 -48.5281 -13.6458 -0.047 -4.849 43.7565 37.3755 -34.4392 -28.3255 -0.9759 2.2888 -1.46516 0.446434 -5.26921 -22.1583 -0.53 10.8316 6.65145 2.08432 13.1376 -0.786 0.112 2.5817 2.78299e-015 2.54444e-014 3.18055e-015 -0.3601 -0.878 4.2331 2.05142e-006 -1.63542e-006 1.48328e-006 -1.8127 -1.216 2.2227 -2.05142e-006 1.63542e-006 -1.48328e-006 -0.9571 1.114 1.7695 0 0 -0 -4.1246 0.487 4.1451 -1.19271e-015 2.54444e-014 9.54166e-015 -3.4052 -1.454 2.7682 2.05142e-006 -1.63542e-006 1.48328e-006 -1.4531 -1.795 1.2713 -2.05142e-006 1.63542e-006 -1.48328e-006 -5.6954 0.21 2.1184 -1.19271e-015 2.54444e-014 9.54166e-015 -3.9766 -1.54 2.3863 2.05142e-006 -1.63542e-006 1.48328e-006 -1.4042 -1.926 1.125 -2.05142e-006 1.63542e-006 -1.48328e-006 -2.0956 0.66 -0.3894 0 0 -0 -5.0395 -0.09 2.4971 -1.19271e-015 2.54444e-014 9.54166e-015 -3.7921 -1.552 1.4806 2.05142e-006 -1.63542e-006 1.48328e-006 -1.4655 -1.808 0.9609 -2.05142e-006 1.63542e-006 -1.48328e-006 -4.9141 -1.269 0.3592 -1.19271e-015 2.54444e-014 9.54166e-015 -3.1477 -1.685 0.8462 2.05142e-006 -1.63542e-006 1.48328e-006 -0.8055 -1.585 0.7955 -2.05142e-006 1.63542e-006 -1.48328e-006 8.367 -8.2066 0.5982 12.5509 -39.3035 -1.95559 2.1923 -43.463 -0.4932 -3.02647 8.79396 0.801532 0.7333 -45.8593 -2.6451 9.37403 -1.96259 8.8306 -8.367 -8.2066 0.5982 -6.58628 -43.3076 -3.33115 -2.1923 -43.463 -0.4931 -0.0748715 10.9482 -0.0481599 -0.7333 -45.8593 -2.6451 -6.56306 -5.49818 0.385063 
